<?xml version="1.0" standalone="no"?>
<!DOCTYPE svg PUBLIC "-//W3C//DTD SVG 20010904//EN"
 "http://www.w3.org/TR/2001/REC-SVG-20010904/DTD/svg10.dtd">
<svg version="1.0" xmlns="http://www.w3.org/2000/svg"
 width="260.000000pt" height="260.000000pt" viewBox="0 0 260.000000 260.000000"
 preserveAspectRatio="xMidYMid meet">
<metadata>
Created by potrace 1.11, written by Peter Selinger 2001-2013
</metadata>
<g transform="translate(0.000000,260.000000) scale(0.100000,-0.100000)"
fill="#000000" stroke="none">
<path d="M73 2343 c-10 -4 -13 -222 -13 -1043 0 -937 2 -1038 16 -1044 20 -8
2428 -8 2448 0 14 6 16 98 16 944 0 535 -4 941 -9 944 -5 3 -362 6 -795 6
-562 0 -786 4 -786 11 0 15 -74 89 -89 89 -6 0 -11 7 -11 15 0 8 -7 15 -15 15
-8 0 -15 5 -15 12 0 7 -12 23 -27 35 l-26 23 -341 -1 c-188 0 -347 -3 -353 -6z
m67 -303 c0 -5 -4 -10 -9 -10 -6 0 -13 5 -16 10 -3 6 1 10 9 10 9 0 16 -4 16
-10z m-3 -86 c-3 -3 -12 -4 -19 -1 -8 3 -5 6 6 6 11 1 17 -2 13 -5z m842 -504
c149 -149 271 -277 271 -284 0 -8 -8 -22 -17 -31 -10 -9 -134 -132 -276 -273
l-258 -257 -76 78 -77 78 197 197 c108 109 197 203 197 210 0 7 -80 93 -177
190 -98 98 -186 187 -196 198 -17 21 -16 23 54 93 40 39 75 71 80 71 4 0 129
-122 278 -270z m1106 -765 l0 -100 -395 0 -395 0 -3 89 c-2 49 -1 95 2 103 5
11 77 13 398 11 l393 -3 0 -100z"/>
</g>
</svg>
